<?xml version="1.0" encoding="UTF-8" standalone="no"?>
<svg
   xmlns:dc="http://purl.org/dc/elements/1.1/"
   xmlns:cc="http://creativecommons.org/ns#"
   xmlns:rdf="http://www.w3.org/1999/02/22-rdf-syntax-ns#"
   xmlns:svg="http://www.w3.org/2000/svg"
   xmlns="http://www.w3.org/2000/svg"
   id="svg8"
   version="1.1"
   viewBox="0 0 173.58025 114.99742"
   height="114.99742mm"
   width="173.58025mm">
  <defs
     id="defs2" />
  <metadata
     id="metadata5">
    <rdf:RDF>
      <cc:Work
         rdf:about="">
        <dc:format>image/svg+xml</dc:format>
        <dc:type
           rdf:resource="http://purl.org/dc/dcmitype/StillImage" />
        <dc:title></dc:title>
      </cc:Work>
    </rdf:RDF>
  </metadata>
  <g
     transform="translate(-7.5255779,-104.13413)"
     id="layer1">
    <g
       transform="matrix(0.61645915,0.57531571,-0.35301045,1.0046689,105.76599,-118.446)"
       id="g4814">
      <rect
         style="fill:#ececec;fill-opacity:1;stroke:#000000;stroke-width:1.25311697;stroke-linecap:round;stroke-miterlimit:4;stroke-dasharray:none;stroke-opacity:1"
         id="rect4793"
         width="35.361"
         height="47.38813"
         x="160.72191"
         y="130.71764" />
      <path
         style="fill:none;stroke:#000000;stroke-width:0.26458332px;stroke-linecap:butt;stroke-linejoin:miter;stroke-opacity:1"
         d="m 175.99698,143.32002 c 0,-0.26727 0,-0.53454 0,-0.80181 0,-0.0891 0.0399,-0.18758 0,-0.26727 -0.0563,-0.11269 -0.19738,-0.16244 -0.26727,-0.26727 -0.0247,-0.0371 0.0199,-0.0938 0,-0.13363 -0.14234,-0.28469 -0.12492,0.0174 -0.26727,-0.26727 -0.0398,-0.0797 0.063,-0.20428 0,-0.26727 -0.0315,-0.0315 -0.0938,0.0199 -0.13363,0 -0.20467,-0.10234 -0.10451,-0.23814 -0.26727,-0.40091 -0.0315,-0.0315 -0.10214,0.0315 -0.13364,0 -0.0704,-0.0704 -0.0784,-0.18439 -0.13363,-0.26726 -0.035,-0.0524 -0.0891,-0.0891 -0.13364,-0.13364 -0.0445,-0.0445 -0.0812,-0.0987 -0.13363,-0.13364 -0.0829,-0.0553 -0.17278,-0.10213 -0.26727,-0.13363 -0.0423,-0.0141 -0.10214,0.0315 -0.13364,0 -0.0315,-0.0315 0.0315,-0.10214 0,-0.13363 -0.0315,-0.0315 -0.0891,0 -0.13363,0 -0.0445,0 -0.0891,0 -0.13363,0 -0.35636,0 -0.71272,0 -1.06908,0 -0.12926,0 -0.76218,-0.0198 -0.80181,0 -0.0564,0.0282 -0.0773,0.10546 -0.13364,0.13363 -0.0398,0.0199 -0.10213,-0.0315 -0.13363,0 -0.063,0.063 0.0398,0.18759 0,0.26727 -0.27808,0.55616 0.009,-0.14286 -0.26727,0.13364 -0.063,0.063 0.063,0.20427 0,0.26726 -0.0315,0.0315 -0.10214,-0.0315 -0.13364,0 -0.063,0.063 0.0399,0.18759 0,0.26727 -0.0282,0.0564 -0.10546,0.0773 -0.13363,0.13364 -0.0285,0.0571 0,0.61535 0,0.66817 0,0.44545 0,0.8909 0,1.33635 0,0.3134 -0.0315,-0.063 0.13363,0.26727 0.0735,0.14695 -0.12869,0.26974 0.13364,0.4009 0.0398,0.0199 0.10214,-0.0315 0.13363,0 0.0315,0.0315 0,0.0891 0,0.13364 0,0.0445 0.0446,0.13363 0,0.13363 -0.0445,0 0,-0.0891 0,-0.13363 0,-0.0324 0.004,-0.39661 0,-0.40091 -0.0315,-0.0315 -0.10213,0.0315 -0.13363,0 -0.0315,-0.0315 0.0315,-0.10213 0,-0.13363 -0.0315,-0.0315 -0.0938,0.0199 -0.13364,0 -0.55615,-0.27808 0.14287,0.009 -0.13363,-0.26727 -0.0162,-0.0162 -0.2124,0.0137 -0.26727,0 -0.13666,-0.0342 -0.26424,-0.0995 -0.4009,-0.13364 -0.0864,-0.0216 -0.17818,0 -0.26727,0 -0.17818,0 -0.35636,0 -0.53454,0 -0.17818,0 -0.36168,-0.0432 -0.53454,0 -0.0611,0.0153 -0.0773,0.10547 -0.13363,0.13364 -0.084,0.042 -0.45055,-0.042 -0.53454,0 -0.6116,0.3058 0.56706,-0.0554 -0.40091,0.26727 -0.0423,0.0141 -0.10214,-0.0315 -0.13363,0 -0.0315,0.0315 0.0315,0.10214 0,0.13363 -0.063,0.063 -0.18759,-0.0398 -0.26727,0 -0.0564,0.0282 -0.0773,0.10547 -0.13364,0.13364 -0.0797,0.0398 -0.20427,-0.063 -0.26727,0 -0.063,0.063 0.063,0.20427 0,0.26727 -0.0315,0.0315 -0.0938,-0.0199 -0.13363,0 -0.0563,0.0282 -0.0891,0.0891 -0.13364,0.13363 -0.0445,0.0445 -0.10546,0.0773 -0.13363,0.13364 -0.0242,0.0483 0,0.57522 0,0.66817 0,0.0491 -0.005,0.52916 0,0.53454 0.0315,0.0315 0.0966,-0.0247 0.13363,0 0.61999,-0.11435 0.1537,0.28734 0.26727,0.40091 0.063,0.063 0.20428,-0.063 0.26727,0 0.0315,0.0315 -0.0315,0.10213 0,0.13363 0.006,0.006 0.60517,0 0.66818,0 0.26727,0 0.53453,0 0.80181,0 0.0445,0 0.13363,-0.0446 0.13363,0 0,0.0445 -0.0891,0 -0.13363,0 -0.0891,0 -0.17819,0 -0.26728,0 -0.26726,0 -0.53453,0 -0.8018,0 -0.0324,0 -0.39661,-0.004 -0.40091,0 -0.0315,0.0315 0.0398,0.11371 0,0.13363 -0.25497,0.12749 -0.25751,-0.15314 -0.4009,0.13364 -0.0399,0.0797 0.063,0.20427 0,0.26727 -0.0315,0.0315 -0.10214,-0.0315 -0.13364,0 -0.0704,0.0704 -0.0784,0.18439 -0.13363,0.26727 -0.035,0.0524 -0.10546,0.0773 -0.13364,0.13363 -0.0199,0.0398 0.0199,0.0938 0,0.13364 -0.0563,0.11269 -0.22742,0.14774 -0.26727,0.26727 -0.0203,0.0609 0,0.84494 0,0.93544 0,0.0445 -0.0315,0.10214 0,0.13364 0.0315,0.0315 0.0891,0 0.13364,0 0.0445,0.0891 0.10213,0.17277 0.13363,0.26727 0.0314,0.0941 -0.0359,0.49867 0,0.53453 0.0315,0.0315 0.10214,-0.0315 0.13364,0 0.27649,0.2765 -0.42252,-0.0108 0.13363,0.26727 0.0399,0.0199 0.0891,0 0.13364,0 0.22272,0 0.44545,0 0.66817,0 0.0891,0 0.18084,-0.0216 0.26727,0 0.69391,0.17348 -0.14266,0.13364 0.53454,0.13364 0.22272,0 0.44545,0 0.66817,0 0.13364,0 0.27413,0.0423 0.40091,0 0.0598,-0.0199 0.13363,-0.0706 0.13363,-0.13364 0,-0.0445 -0.0938,-0.0199 -0.13363,0 -0.0564,0.0282 -0.0891,0.0891 -0.13364,0.13364 -0.0445,0.0445 -0.10546,0.0773 -0.13363,0.13363 -0.0199,0.0398 0.0315,0.10214 0,0.13364 -0.0315,0.0315 -0.0891,0 -0.13364,0 -0.0891,0.0891 -0.19738,0.16243 -0.26726,0.26727 -0.0494,0.0741 0.0398,0.18758 0,0.26727 -0.0282,0.0563 -0.10547,0.0773 -0.13364,0.13363 -0.0199,0.0398 0.0199,0.0938 0,0.13364 -0.0282,0.0563 -0.11371,0.0739 -0.13364,0.13363 -0.0247,0.0742 0,0.90888 0,1.06908 0,0.26727 0,0.53454 0,0.80181 0,0.0891 0,0.17818 0,0.26727 0,0.0891 -0.0282,0.18275 0,0.26727 0.0199,0.0598 0.0987,0.0812 0.13364,0.13363 0.0553,0.0829 0.10214,0.17278 0.13364,0.26727 0.0782,0.23451 -0.14038,0.12689 0.13363,0.40091 0.0445,0.0445 0.0773,0.10546 0.13363,0.13363 0.0407,0.0203 0.34072,0 0.40091,0 0.0699,0 0.4994,0.0176 0.53454,0 0.0355,-0.0178 0.38316,-0.36542 0.4009,-0.4009 0.0265,-0.053 -0.0273,-0.37359 0,-0.40091 0.0315,-0.0315 0.0938,0.0199 0.13364,0 0.0563,-0.0282 0.0891,-0.0891 0.13363,-0.13363 0.0446,-0.0446 0.10546,-0.0773 0.13364,-0.13364 0.0199,-0.0398 -0.0315,-0.10213 0,-0.13363 0.27649,-0.2765 -0.0108,0.42252 0.26726,-0.13364 0.0265,-0.053 -0.0273,-0.37358 0,-0.4009 0.0315,-0.0315 0.10214,-0.0315 0.13364,0 0.0315,0.0315 0,0.0891 0,0.13363 0,0.0445 0.0199,0.0938 0,0.13364 -0.0282,0.0563 -0.10546,0.0773 -0.13364,0.13363 -0.0398,0.0797 0.0399,0.18759 0,0.26727 -0.0282,0.0564 -0.11371,0.0739 -0.13363,0.13364 -0.0226,0.0677 0,0.82619 0,0.93544 0,0.0878 -0.0157,0.50311 0,0.53454 0.0199,0.0398 0.10214,-0.0315 0.13363,0 0.063,0.063 -0.063,0.20427 0,0.26727 0.0129,0.0129 0.2132,-0.0108 0.26727,0 0.1801,0.036 0.35445,0.0976 0.53454,0.13363 0.0351,0.007 0.63419,0.017 0.66818,0 0.0563,-0.0282 0.0891,-0.0891 0.13363,-0.13363 0.0445,-0.0446 0.0891,-0.0891 0.13364,-0.13364 0.0856,-0.0856 0.45116,-0.40948 0.53454,-0.53454 0.0166,-0.0249 0.2587,-0.52597 0.26727,-0.53453 0.0315,-0.0315 0.10213,0.0315 0.13363,0 0.0315,-0.0315 -0.0108,-0.0904 0,-0.13364 0.0446,-0.13363 0.0891,-0.26727 0.13363,-0.4009 0.0445,0 0.10214,0.0315 0.13364,0 0.0315,-0.0315 -0.0315,-0.10214 0,-0.13364 0.0315,-0.0315 0.10214,-0.0315 0.13364,0 0.0315,0.0315 0,0.0891 0,0.13364 0,0.11198 -0.0284,0.61137 0,0.66817 0.0199,0.0398 0.11371,-0.0398 0.13363,0 0.21171,0.42343 -0.27654,0.12436 0.13363,0.53454 0.0315,0.0315 0.11372,-0.0398 0.13364,0 0.0398,0.0797 -0.0216,0.18084 0,0.26727 0.22503,0.90013 0.002,0.002 0.26727,0.26727 0.0704,0.0704 0.10214,0.17277 0.13363,0.26727 0.0141,0.0423 -0.0398,0.11371 0,0.13363 0.0797,0.0399 0.18084,-0.0216 0.26727,0 0.90013,0.22504 0.002,0.002 0.26727,0.26727 0.0315,0.0315 0.0891,0 0.13364,0 0.0891,0 0.17818,0 0.26727,0 0.11943,0 0.62558,0.0213 0.66817,0 0.0564,-0.0282 0.0739,-0.11371 0.13364,-0.13363 0.0845,-0.0282 0.18758,0.0398 0.26727,0 0.0398,-0.0199 -0.0199,-0.0938 0,-0.13364 0.10233,-0.20467 0.23813,-0.1045 0.4009,-0.26727 0.0315,-0.0315 -0.0315,-0.10213 0,-0.13363 0.16276,-0.16277 0.29857,-0.0626 0.4009,-0.26727 0.0199,-0.0398 -0.0199,-0.0938 0,-0.13364 0.0282,-0.0563 0.0891,-0.0891 0.13364,-0.13363 0.0445,-0.0445 0.0773,-0.10546 0.13363,-0.13364 0.0398,-0.0199 0.0891,0 0.13364,0 0.0891,0 0.18758,-0.0398 0.26727,0 0.0398,0.0199 -0.0141,0.0914 0,0.13364 0.0315,0.0945 0.0784,0.18439 0.13363,0.26727 0.0349,0.0524 0.0891,0.0891 0.13364,0.13363 0.0891,0.0891 0.17818,0.17818 0.26727,0.26727 0.0891,0.0891 0.19167,0.16648 0.26726,0.26727 0.0598,0.0797 0.0632,0.19684 0.13364,0.26727 0.0315,0.0315 0.098,-0.0267 0.13364,0 0.45127,0.33846 0.36348,0.57285 0.93544,0.66818 0.17942,0.0299 0.8664,0 1.06908,0 0.0891,0 0.17818,0 0.26727,0 0.0445,0 0.0923,0.0165 0.13363,0 0.18496,-0.074 0.35636,-0.17818 0.53454,-0.26727 0.0891,-0.0445 0.18186,-0.0824 0.26727,-0.13364 0.13772,-0.0826 0.26318,-0.18463 0.4009,-0.26727 0.0854,-0.0512 0.19684,-0.0632 0.26727,-0.13363 0.0704,-0.0704 0.0632,-0.19684 0.13364,-0.26727 0.063,-0.063 0.20427,0.063 0.26727,0 0.11357,-0.11357 0.1537,-0.28734 0.26727,-0.40091 0.063,-0.063 0.20427,0.063 0.26727,0 0.0315,-0.0315 -0.0199,-0.0938 0,-0.13363 0.0282,-0.0564 0.10546,-0.0773 0.13363,-0.13364 0.0199,-0.0398 -0.0315,-0.10213 0,-0.13363 0.0315,-0.0315 0.0891,0 0.13364,0 0.0445,0 0.0891,0 0.13363,0 0.22273,0 0.44545,0 0.66817,0 0.0891,0 0.17818,0 0.26728,0 0.0445,0 0.0938,0.0199 0.13363,0 0.55616,-0.27808 -0.14286,0.009 0.13363,-0.26727 0.0819,-0.0819 0.34974,-0.11376 0.40091,-0.26727 0.0282,-0.0845 -0.0398,-0.18758 0,-0.26727 0.0199,-0.0398 0.0938,0.0199 0.13363,0 0.12232,-0.0612 0.23472,-0.30324 0.26727,-0.4009 0.0359,-0.10756 -0.0427,-0.44915 0,-0.53454 0.0357,-0.0714 0.33055,-0.33055 0.40091,-0.40091 0.57801,-0.578 0.0209,0.0354 0.4009,-0.53454 -0.0133,-0.26473 0.19684,-0.0632 0.26727,-0.13363 0.0315,-0.0315 -0.0199,-0.0938 0,-0.13364 0.3058,-0.61159 -0.0554,0.56707 0.26727,-0.4009 0.006,-0.0172 0.006,-0.38984 0,-0.4009 -0.0282,-0.0564 -0.0773,-0.10546 -0.13364,-0.13364 -0.053,-0.0265 -0.37358,0.0273 -0.4009,0 -0.0315,-0.0315 0.0398,-0.11371 0,-0.13363 -0.0797,-0.0398 -0.17818,0 -0.26727,0 -0.0445,0 -0.13363,0.0445 -0.13363,0 0,-0.0446 0.0938,0.0199 0.13363,0 0.44321,-0.44321 -0.12599,0.063 0.26727,-0.13364 0.0563,-0.0282 0.0773,-0.10546 0.13364,-0.13363 0.15821,-0.0791 0.15646,0.14337 0.26726,-0.13364 0.0682,-0.17052 0.0756,-0.3603 0.13364,-0.53454 0.0315,-0.0945 0.10214,-0.17277 0.13363,-0.26727 0.0282,-0.0845 -0.0398,-0.18758 0,-0.26727 0.0282,-0.0563 0.11372,-0.0739 0.13364,-0.13363 0.0423,-0.12678 0,-0.26727 0,-0.4009 0,-0.31182 0,-0.62363 0,-0.93545 0,-0.0838 0.0165,-0.51803 0,-0.53454 -0.0315,-0.0315 -0.0891,0 -0.13364,0 -0.0699,0 -0.49939,-0.0176 -0.53453,0 -0.0348,0.0174 -0.2258,0.17511 -0.13364,0.26727 0.0315,0.0315 0.0891,0 0.13364,0 0.0445,0 0.11371,0.0398 0.13363,0 0.0398,-0.0797 -0.0216,-0.18084 0,-0.26727 0.17348,-0.69391 0.13363,0.14266 0.13363,-0.53454 0,-0.48999 0,-0.97998 0,-1.46998 0,-0.10285 0.0221,-0.62398 0,-0.66817 -0.0199,-0.0398 -0.11371,0.0398 -0.13363,0 -0.0398,-0.0797 0.0398,-0.18759 0,-0.26727 -0.0199,-0.0398 -0.11371,0.0398 -0.13363,0 -0.0399,-0.0797 0.0398,-0.18759 0,-0.26727 -0.0399,-0.0797 -0.18759,0.0398 -0.26727,0 -0.6116,-0.3058 0.56707,0.0554 -0.40091,-0.26727 -0.0839,-0.028 -0.42696,0 -0.53454,0 -0.0445,0 -0.0891,0 -0.13363,0 -0.0445,0 -0.10214,-0.0315 -0.13364,0 -0.0315,0.0315 0.0199,0.0938 0,0.13363 -0.0282,0.0563 -0.10546,0.0773 -0.13363,0.13364 -0.0199,0.0398 0.0199,0.0938 0,0.13363 -0.0282,0.0564 -0.10546,0.0773 -0.13364,0.13364 -0.0199,0.0398 -0.0445,0.13363 0,0.13363 0.22161,0 0.0937,-0.1874 0.13364,-0.26727 0.0282,-0.0563 0.0891,-0.0891 0.13363,-0.13363 0.0445,-0.0445 0.11372,-0.0739 0.13364,-0.13364 0.0192,-0.0576 0,-0.88319 0,-0.93544 0,-0.17818 0,-0.35636 0,-0.53454 0,-0.3691 0.0386,-0.59107 -0.13364,-0.93544 -0.0563,-0.11269 -0.21092,-0.15458 -0.26727,-0.26727 -0.16456,-0.32914 0.38791,0.12063 -0.13363,-0.4009 -0.0315,-0.0315 -0.0938,0.0199 -0.13363,0 -0.16037,-0.0802 -0.24055,-0.32073 -0.40091,-0.40091 -0.0398,-0.0199 -0.0891,0 -0.13363,0 -0.0891,0 -0.17818,0 -0.26727,0 -0.12046,0 -0.58407,-0.028 -0.66818,0 -0.24448,0.0815 -0.36252,0.22888 -0.53454,0.40091 -0.0891,0.0891 -0.17818,0.17817 -0.26727,0.26726 0,0.0445 0.0199,0.0938 0,0.13364 -0.0282,0.0563 -0.10546,0.0773 -0.13363,0.13363 -0.0199,0.0399 0.0445,0.13364 0,0.13364 -0.0445,0 -0.0199,-0.0938 0,-0.13364 0.0282,-0.0563 0.11371,-0.0739 0.13363,-0.13363 0.0423,-0.12678 -0.0423,-0.27413 0,-0.4009 0.0315,-0.0945 0.10214,-0.17278 0.13364,-0.26728 0.0199,-0.0597 0.007,-0.64092 0,-0.66817 -0.0242,-0.0966 -0.0891,-0.17818 -0.13364,-0.26727 -0.0445,-0.0891 -0.0784,-0.18439 -0.13363,-0.26727 -0.0699,-0.10483 -0.21093,-0.15458 -0.26727,-0.26727 -0.0199,-0.0398 0.0315,-0.10213 0,-0.13363 -0.0315,-0.0315 -0.0938,0.0199 -0.13364,0 -0.0563,-0.0282 -0.0773,-0.10546 -0.13363,-0.13364 -0.0345,-0.0173 -0.70709,0 -0.80181,0 -0.0324,0 -0.39661,-0.004 -0.4009,0 -0.0704,0.0704 -0.0739,0.18759 -0.13364,0.26727 -0.0756,0.1008 -0.17818,0.17818 -0.26727,0.26727 -0.0891,0.0891 -0.17818,0.17818 -0.26727,0.26727 -0.0445,0.0445 -0.11371,0.0739 -0.13363,0.13364 -0.0282,0.0845 0.0282,0.18275 0,0.26727 -0.0199,0.0598 -0.0987,0.0812 -0.13364,0.13363 -0.29442,0.0673 -0.0706,0.27491 -0.13363,0.4009 -0.19663,0.39327 -0.13364,-0.20743 -0.13364,0.40091 0,0.37058 0.0199,-0.21332 -0.13363,0.4009 -0.0216,0.0864 0.0398,0.18759 0,0.26727 -0.0199,0.0399 -0.10214,-0.0315 -0.13364,0 -0.0315,0.0315 0,0.0891 0,0.13364 0,0.0445 0,0.17818 0,0.13363 0,-0.13363 0,-0.26727 0,-0.4009 0,-0.0445 0.0315,-0.10214 0,-0.13364 -0.0315,-0.0315 -0.11371,0.0399 -0.13363,0 -0.0398,-0.0797 0.0398,-0.18758 0,-0.26727 -0.0398,-0.0797 -0.18759,0.0399 -0.26727,0 -0.61159,-0.30579 0.56707,0.0554 -0.40091,-0.26726 -0.0742,-0.0247 -0.8895,0 -0.93544,0 -0.10663,0 -0.588,-0.0267 -0.66817,0 -0.82949,0.27649 0.44414,-0.0108 -0.66817,0.26726 -0.0432,0.0108 -0.0891,0 -0.13364,0 -0.1989,0 -0.17057,-0.0199 -0.40091,0.13364 -0.15419,0.10279 -0.24671,0.29811 -0.4009,0.4009 -0.0829,0.0553 -0.18439,0.0784 -0.26727,0.13364 -0.0549,0.0366 -0.3643,0.346 -0.4009,0.4009 -0.0553,0.0829 -0.0784,0.1844 -0.13364,0.26727 -0.0349,0.0524 -0.10546,0.0773 -0.13363,0.13364 -0.16457,0.32913 0.3879,-0.12064 -0.13364,0.4009 -0.0315,0.0315 -0.10213,-0.0315 -0.13363,0 -0.0315,0.0315 0.0141,0.0914 0,0.13363 -0.32266,0.96798 0.0385,-0.21068 -0.26727,0.40091 -0.0173,0.0345 0,0.70709 0,0.80181"
         id="path4795" />
      <path
         style="fill:none;stroke:#000000;stroke-width:0.26458332px;stroke-linecap:butt;stroke-linejoin:miter;stroke-opacity:1"
         d="m 176.13062,155.48078 c 0,0.17818 0.0349,0.35982 0,0.53454 -0.0247,0.12355 -0.21093,0.15458 -0.26727,0.26727 -0.0424,0.0848 0.0434,0.58136 0,0.66818 -0.0282,0.0563 -0.10546,0.0773 -0.13364,0.13363 -0.0173,0.0346 0,0.70709 0,0.80181 0,0.0445 0.0199,0.0938 0,0.13363 -0.0282,0.0564 -0.10546,0.0773 -0.13363,0.13364 -0.042,0.084 0.042,0.45054 0,0.53454 -0.0282,0.0563 -0.10546,0.0773 -0.13364,0.13363 -0.0398,0.0797 0.0282,0.18275 0,0.26727 -0.0315,0.0945 -0.10213,0.17278 -0.13363,0.26727 -0.0266,0.0797 0,0.67234 0,0.80181 0,0.0445 0.0199,0.0938 0,0.13364 -0.0282,0.0563 -0.10546,0.0773 -0.13364,0.13363 -0.0534,0.10691 0.0535,0.294 0,0.4009 -0.0199,0.0399 -0.10213,-0.0315 -0.13363,0 -0.0315,0.0315 0,0.0891 0,0.13364 0,0.0445 0,0.0891 0,0.13363 0,0.26727 0,0.53454 0,0.80181 0,0.0445 0,0.0891 0,0.13364 0,0.0445 0.0199,0.0938 0,0.13363 -0.0282,0.0564 -0.10546,0.0773 -0.13364,0.13364 -0.0398,0.0797 0.0399,0.18758 0,0.26726 -0.0282,0.0563 -0.10546,0.0773 -0.13363,0.13364 -0.0199,0.0398 0.0199,0.0938 0,0.13364 -0.0282,0.0563 -0.10546,0.0773 -0.13364,0.13363 -0.0398,0.0797 0.063,0.20427 0,0.26727 -0.0315,0.0315 -0.10213,-0.0315 -0.13363,0 -0.0315,0.0315 0,0.0891 0,0.13363 0,0.0446 0.0315,0.10214 0,0.13364 -0.0315,0.0315 -0.10214,-0.0315 -0.13363,0 -0.063,0.063 0.063,0.20427 0,0.26727 -0.2765,0.27649 0.0108,-0.42252 -0.26728,0.13363 -0.0199,0.0398 0.0199,0.0938 0,0.13364 -0.0282,0.0563 -0.10546,0.0773 -0.13363,0.13363 -0.0922,0.18433 0.16184,0.11954 -0.13363,0.26727 -0.0399,0.0199 -0.10214,-0.0315 -0.13364,0 -0.0668,0.0668 0.0668,0.33409 0,0.40091 -0.0315,0.0315 -0.10213,-0.0315 -0.13363,0 -0.0704,0.0704 -0.0784,0.18439 -0.13364,0.26727 -0.0699,0.10483 -0.17818,0.17818 -0.26727,0.26727 -0.17818,0.17817 -0.35636,0.35636 -0.53454,0.53453 -0.0445,0.0445 -0.10546,0.0773 -0.13363,0.13364 -0.0891,0.17818 0.13363,0.13363 -0.13364,0.13363"
         id="path4797" />
      <path
         style="fill:none;stroke:#000000;stroke-width:0.26458332px;stroke-linecap:butt;stroke-linejoin:miter;stroke-opacity:1"
         d="m 181.87691,156.14896 c 0,0.17818 0.0293,0.35878 0,0.53454 -0.0164,0.0982 -0.10214,0.17277 -0.13363,0.26727 -0.0251,0.0754 0,0.31309 0,0.4009 0,0.31181 0,0.62363 0,0.93544 0,0.97999 0,1.95998 0,2.93997 0,0.31181 0,0.62363 0,0.93544 0,0.13364 0.0324,0.27126 0,0.4009 -0.0242,0.0966 -0.10214,0.17278 -0.13364,0.26728 -0.0241,0.0723 0,0.48901 0,0.53453 0,0.44545 0,0.8909 0,1.33635 0,0.22273 0,0.44545 0,0.66818 0,0.0445 0,0.0891 0,0.13363 0,0.0445 -0.0199,0.0938 0,0.13364 0.0563,0.11269 0.21093,0.15457 0.26727,0.26726 0.0398,0.0797 -0.063,0.20428 0,0.26727 0.0315,0.0315 0.0938,-0.0199 0.13364,0 0.0563,0.0282 0.0891,0.0891 0.13363,0.13364 0.0445,0.0445 0.10546,0.0773 0.13364,0.13363 0.0199,0.0399 -0.0315,0.10214 0,0.13364 0.0315,0.0315 0.0938,-0.0199 0.13363,0 0.55616,0.27808 -0.14286,-0.009 0.13364,0.26727 0.0315,0.0315 0.0938,-0.0199 0.13363,0 0.55616,0.27808 -0.14286,-0.009 0.13363,0.26727 0.0315,0.0315 0.10214,-0.0315 0.13364,0 0.063,0.063 -0.063,0.20427 0,0.26727 0.0315,0.0315 0.0938,-0.0199 0.13363,0 0.0714,0.0357 0.33056,0.33055 0.40091,0.4009"
         id="path4799" />
      <path
         style="fill:none;stroke:#000000;stroke-width:0.26458332px;stroke-linecap:butt;stroke-linejoin:miter;stroke-opacity:1"
         d="m 167.57799,166.97337 c 0.27871,-0.0838 0.90997,0.0732 1.20271,0 0.0611,-0.0153 0.0773,-0.10546 0.13364,-0.13363 0.12599,-0.063 0.27012,-0.0813 0.4009,-0.13364 0.0925,-0.037 0.1696,-0.1141 0.26727,-0.13363 0.13104,-0.0262 0.26987,0.0262 0.40091,0 0.19534,-0.0391 0.34555,-0.20427 0.53454,-0.26727 0.1273,-0.0424 0.538,0.0434 0.66817,0 0.75713,-0.37857 -0.19921,0.0498 0.53454,-0.13364 0.0966,-0.0241 0.17277,-0.10213 0.26727,-0.13363 0.0423,-0.0141 0.10214,0.0315 0.13363,0 0.0315,-0.0315 -0.0315,-0.10214 0,-0.13364 0.0188,-0.0188 0.37349,-0.0137 0.40091,0 0.0563,0.0282 0.0773,0.10547 0.13363,0.13364 0.10691,0.0534 0.294,-0.0534 0.40091,0 0.16036,0.0802 0.24054,0.32072 0.4009,0.4009 0.14306,0.0715 0.28519,-0.11571 0.53454,0.13364 0.2765,0.27649 -0.42252,-0.0108 0.13363,0.26727 0.0399,0.0199 0.0891,0 0.13364,0 0.0891,0 0.17818,0 0.26727,0 0.22273,0 0.44545,0 0.66817,0 0.0891,0 0.18084,-0.0216 0.26727,0 0.0966,0.0242 0.17278,0.10213 0.26727,0.13363 0.0845,0.0282 0.18759,-0.0398 0.26727,0 0.0563,0.0282 0.0773,0.10547 0.13364,0.13364 0.0398,0.0199 0.0891,0 0.13363,0 0.0891,0 0.17818,0 0.26727,0 0.31182,0 0.62363,0 0.93544,0 0.11315,0 0.4627,0.0239 0.53454,0 0.0598,-0.0199 0.0739,-0.11372 0.13364,-0.13364 0.0845,-0.0282 0.18275,0.0282 0.26727,0 0.0598,-0.0199 0.0773,-0.10546 0.13363,-0.13363 0.12599,-0.063 0.26425,-0.0995 0.40091,-0.13364 0.0432,-0.0108 0.0938,0.0199 0.13363,0 0.0563,-0.0282 0.0739,-0.11371 0.13364,-0.13363 0.0845,-0.0282 0.18275,0.0282 0.26726,0 0.0598,-0.0199 0.0773,-0.10546 0.13364,-0.13364 0.13364,-0.0445 0.26727,-0.0891 0.4009,-0.13363 0.0445,-0.0446 0.0773,-0.10546 0.13364,-0.13364 0.0487,-0.0243 0.59117,0 0.66817,0 0.13458,0 0.72791,-0.0246 0.80181,0 0.0598,0.0199 0.0773,0.10547 0.13364,0.13364 0.0797,0.0398 0.18275,-0.0282 0.26727,0 0.0945,0.0315 0.17277,0.10214 0.26727,0.13363 0.052,0.0173 0.38016,-0.0207 0.4009,0 0.0315,0.0315 0,0.0891 0,0.13364 0.0445,0.0891 0.0632,0.19684 0.13363,0.26727 0.0315,0.0315 0.0938,-0.0199 0.13364,0 0.0564,0.0282 0.0812,0.0987 0.13363,0.13363 0.0829,0.0553 0.17818,0.0891 0.26727,0.13364 0.0891,0.0445 0.17064,0.10947 0.26727,0.13363 0.0864,0.0216 0.17818,0 0.26727,0 0.0891,0.0445 0.17278,0.10214 0.26727,0.13364 0.0423,0.0141 0.0938,-0.0199 0.13364,0 0.40752,0.20376 -0.24441,0.10594 0.4009,0.26727 0.0651,0.0163 0.46388,-0.0353 0.53454,0 0.0563,0.0282 0.0739,0.11371 0.13364,0.13363 0.0649,0.0216 0.799,0 0.93544,0 0.35636,0 0.71272,0 1.06908,0 0.1094,0 0.58159,0.0289 0.66817,0 0.0945,-0.0315 0.17278,-0.10214 0.26727,-0.13363 0.0919,-0.0306 0.32206,0.0394 0.4009,0 0.0563,-0.0282 0.0739,-0.11372 0.13364,-0.13364 0.12678,-0.0423 0.26727,0 0.4009,0"
         id="path4801" />
      <path
         style="fill:#008000;fill-opacity:1;stroke:#000000;stroke-width:1.52715969;stroke-linecap:round;stroke-miterlimit:4;stroke-dasharray:none;stroke-opacity:1"
         d="m 679.24345,587.44332 c -1.55869,-1.61017 -2.97208,-3.32534 -3.14087,-3.81147 -0.49369,-1.42191 -2.44535,-1.03924 -4.11383,0.80661 -3.02312,3.34447 -4.25066,3.71448 -8.43579,2.54268 -0.83545,-0.23392 -4.1088,-6.0988 -3.92598,-7.03422 0.49189,-2.51686 -1.27011,-2.24395 -2.595,0.40193 -1.77404,3.54288 -3.88666,5.42957 -6.07973,5.42957 -1.04034,0 -2.24084,-0.35568 -2.67884,-0.79369 -0.80231,-0.80231 -1.12421,-4.76835 -0.44236,-5.4502 0.19324,-0.19323 0.39663,-0.62886 0.45198,-0.96806 0.0553,-0.3392 0.15145,-0.84401 0.21355,-1.12181 0.24592,-1.10006 -0.0428,-1.76776 -0.76433,-1.76776 -0.41668,0 -0.75761,0.37168 -0.75761,0.82596 0,0.45428 -0.56821,1.35257 -1.26269,1.99619 -0.69448,0.64363 -1.26269,1.47655 -1.26269,1.85094 0,1.13944 -1.12629,1.8929 -2.82953,1.8929 -1.36583,0 -1.70994,-0.25527 -2.2128,-1.6415 -0.86241,-2.37737 -1.11935,-9.35708 -0.39261,-10.6652 0.32933,-0.5928 0.55408,-1.23755 0.49943,-1.43277 -0.0546,-0.19522 0.57892,-0.75562 1.40793,-1.24532 0.829,-0.48971 1.50727,-1.314 1.50727,-1.83176 0,-0.78452 -0.25406,-0.88558 -1.52468,-0.60651 -0.83857,0.18419 -3.24142,0.17401 -5.33966,-0.0226 -3.51957,-0.32981 -3.85129,-0.46019 -4.28391,-1.68371 -0.25792,-0.72941 -0.69612,-1.72087 -0.9738,-2.20324 -0.82593,-1.43479 -0.58207,-2.96699 0.75019,-4.71368 2.32869,-3.05306 2.68013,-3.24812 5.8521,-3.24812 2.32495,0 2.99438,-0.16938 2.99438,-0.75762 0,-0.58876 -0.67146,-0.75761 -3.01269,-0.75761 -2.49576,0 -3.10544,-0.17333 -3.5533,-1.01016 -0.29734,-0.55558 -0.87355,-1.01015 -1.28046,-1.01015 -0.50403,0 -0.73985,-0.54493 -0.73985,-1.70968 0,-1.30208 0.33114,-1.93223 1.38896,-2.64318 2.80738,-1.8868 5.51019,-2.83672 8.79693,-3.09174 3.06829,-0.23807 3.47557,-0.15307 4.58579,0.95716 0.67014,0.67014 1.45456,1.64037 1.74317,2.15608 0.75251,1.34467 1.74035,0.51694 1.34757,-1.12916 -0.17822,-0.74691 -0.48901,-1.58529 -0.69065,-1.86308 -0.20164,-0.2778 -0.5101,-2.12368 -0.68546,-4.10196 -0.26833,-3.02703 -0.17283,-3.7872 0.60282,-4.79822 0.50692,-0.66074 1.06687,-1.5991 1.24433,-2.08523 0.26786,-0.73376 0.94732,-0.88085 4.00032,-0.86599 4.24246,0.0207 5.16281,0.43378 7.66157,3.43916 1.95519,2.3516 2.07378,2.6454 1.36698,3.38673 -1.20655,1.26548 -2.57298,4.47898 -2.57298,6.05102 0,1.90127 0.98647,2.4816 1.04707,0.61598 0.0203,-0.62503 0.47752,-1.81827 1.01604,-2.65165 0.53851,-0.83337 1.11662,-1.91297 1.28468,-2.39911 0.54535,-1.57752 1.1979,-0.93553 1.1979,1.17851 0,1.42374 0.19551,1.99822 0.63134,1.85514 0.83885,-0.27537 1.0875,-3.09841 0.38802,-4.40539 -0.46932,-0.87695 -0.33576,-1.23577 0.85363,-2.2933 0.7755,-0.68952 1.97822,-1.38235 2.6727,-1.53961 0.69448,-0.15727 1.65735,-0.49949 2.13972,-0.7605 1.17826,-0.63757 7.45672,-0.61188 7.45672,0.0305 0,0.2778 0.34661,0.50508 0.77025,0.50508 0.45176,0 0.89554,0.62652 1.07328,1.51523 0.16668,0.83338 0.46352,1.51523 0.65964,1.51523 0.4893,0 1.39877,-1.95636 1.761,-3.78807 0.48916,-2.4736 0.54911,-2.6408 1.24939,-3.48458 0.36907,-0.44472 0.48499,-0.80857 0.25759,-0.80857 -0.22741,0 0.35756,-0.7955 1.29992,-1.76777 2.23328,-2.30415 4.92372,-2.47817 6.54031,-0.42301 1.52965,1.94464 1.75321,3.42485 0.90595,5.99846 -0.79034,2.4007 -0.1817,3.81713 0.85626,1.99265 1.8933,-3.32799 5.15451,-4.28447 7.7221,-2.2648 0.70631,0.55559 1.10469,1.01015 0.88527,1.01015 -0.21941,0 0.0241,0.46744 0.54111,1.03874 1.46477,1.61855 1.6312,6.81475 0.30176,9.42068 -0.57308,1.12333 -0.90018,2.1842 -0.72688,2.35749 0.63175,0.63175 1.43395,0.28876 1.92098,-0.82134 0.51387,-1.17129 3.2765,-1.94483 3.2765,-0.91744 0,0.29625 0.30444,0.53863 0.67654,0.53863 1.1305,0 1.84884,2.38221 1.84884,6.13128 0,2.78546 -0.21792,3.83542 -1.00327,4.83383 -0.5518,0.7015 -0.87931,1.47602 -0.72781,1.72116 0.39656,0.64165 1.93142,0.54841 2.64022,-0.16038 0.4714,-0.4714 0.60609,0.0208 0.60609,2.21484 0,4.04998 -1.2545,7.56707 -3.07092,8.60955 -1.95067,1.11953 -1.86159,1.78519 0.293,2.18939 0.97227,0.1824 1.76777,0.55959 1.76777,0.83819 0,0.27861 -1.13643,1.81834 -2.52539,3.42164 -1.6595,1.9156 -2.52538,3.37323 -2.52538,4.25131 0,0.73493 -0.34092,1.46706 -0.75761,1.62695 -0.41669,0.15991 -0.75762,0.5812 -0.75762,0.93622 0,1.08635 -2.37645,2.27689 -4.54493,2.27689 -1.58637,0 -2.37133,0.32349 -3.44153,1.4183 -0.76254,0.78007 -1.77766,1.56843 -2.25583,1.75191 -0.47816,0.18349 -0.86938,0.53192 -0.86938,0.77428 0,0.24236 -1.0796,1.00714 -2.39912,1.69951 -1.72938,0.90745 -3.31557,1.28887 -5.6821,1.36636 l -3.283,0.1075 z"
         id="path4803"
         transform="scale(0.26458333)" />
      <path
         style="fill:#502d16;fill-opacity:1;stroke:#000000;stroke-width:1.52715969;stroke-linecap:round;stroke-miterlimit:4;stroke-dasharray:none;stroke-opacity:1"
         d="m 664.65231,630.22514 c -0.69448,-0.22242 -2.18059,-0.42704 -3.30247,-0.45474 -1.93386,-0.0477 -4.93375,-1.23724 -6.59289,-2.61421 -0.65594,-0.54438 -0.51925,-0.87316 1.01721,-2.44663 0.97624,-0.99976 2.03172,-2.55424 2.34552,-3.45439 0.31379,-0.90015 0.76492,-1.63664 1.0025,-1.63664 0.39149,0 1.23335,-1.58818 2.27571,-4.29314 0.84637,-2.19639 1.16447,-3.66625 1.47565,-6.81853 0.15082,-1.52786 0.35509,-3.57342 0.45394,-4.54569 0.0988,-0.97227 0.33597,-2.33598 0.52695,-3.03046 0.5465,-1.98735 0.8041,-3.61665 1.39748,-8.83883 0.16553,-1.45688 1.4299,-2.60815 3.30532,-3.00969 1.04049,-0.22277 2.37001,-1.18777 3.66792,-2.66227 1.11972,-1.27207 2.09696,-2.2209 2.17165,-2.10852 0.75867,1.14152 4.46893,5.04646 5.83292,6.13898 1.32851,1.0641 2.27896,1.38885 4.06375,1.3885 l 2.32966,-4.6e-4 -0.39283,16.03663 c -0.21606,8.82015 -0.31852,16.77531 -0.22769,17.67813 l 0.16514,1.6415 h -2.82802 c -1.55542,0 -3.04395,0.19295 -3.30785,0.42878 -0.2639,0.23583 -2.14064,1.03132 -4.17052,1.76777 -3.77297,1.36883 -8.45184,1.71692 -11.20905,0.83391 z"
         id="path4805"
         transform="scale(0.26458333)" />
    </g>
    <ellipse
       transform="matrix(0.81264535,-0.58275855,0.50111562,0.86538034,0,0)"
       ry="19.586802"
       rx="8.8966293"
       cy="131.55556"
       cx="-32.018013"
       id="path4577"
       style="fill:#e9c6af;stroke:#000000;stroke-width:0.80189604;stroke-miterlimit:4;stroke-dasharray:none;stroke-opacity:1" />
    <ellipse
       transform="matrix(-0.81264535,-0.58275855,-0.50111563,0.86538034,0,0)"
       ry="19.586802"
       rx="8.8966293"
       cy="61.04388"
       cx="-135.8179"
       id="path4577-6"
       style="fill:#e9c6af;stroke:#000000;stroke-width:0.80189604;stroke-miterlimit:4;stroke-dasharray:none;stroke-opacity:1" />
    <ellipse
       style="fill:#501616;fill-opacity:1;stroke:#000000;stroke-width:0.80000001;stroke-miterlimit:4;stroke-dasharray:none;stroke-opacity:1"
       ry="23.8125"
       rx="20.977678"
       cy="128.34663"
       cx="59.937996"
       id="path10" />
    <g
       style="stroke:#000000;stroke-width:0.40000001;stroke-miterlimit:4;stroke-dasharray:none;stroke-opacity:1"
       transform="translate(28.754961,22.149024)"
       id="g4575">
      <path
         style="fill:#ffffff;stroke:#000000;stroke-width:1.51181102;stroke-miterlimit:4;stroke-dasharray:none;stroke-opacity:1"
         d="m 135.71484,388.94922 a 19.999999,35.000001 0 0 0 -17.26367,17.39258 19.999999,35.000001 0 0 0 -17.02344,-16.67969 19.999999,35.000001 0 0 0 -19.999996,35 19.999999,35.000001 0 0 0 19.999996,35 19.999999,35.000001 0 0 0 17.26368,-17.39258 19.999999,35.000001 0 0 0 17.02343,16.67969 19.999999,35.000001 0 0 0 20,-35 19.999999,35.000001 0 0 0 -20,-35 z"
         transform="scale(0.26458333)"
         id="path4549" />
      <ellipse
         style="fill:#000000;stroke:#000000;stroke-width:0.40000001;stroke-miterlimit:4;stroke-dasharray:none;stroke-opacity:1"
         id="path4551"
         cx="27.403275"
         cy="116.51637"
         rx="2.4568453"
         ry="3.2127976" />
      <ellipse
         style="fill:#000000;stroke:#000000;stroke-width:0.40000001;stroke-miterlimit:4;stroke-dasharray:none;stroke-opacity:1"
         id="path4551-8"
         cx="34.887199"
         cy="116.32738"
         rx="2.4568453"
         ry="3.2127976" />
    </g>
    <g
       style="fill:#501616;fill-opacity:1"
       id="g4865"
       transform="translate(0.11183439,0.08265465)">
      <path
         style="fill:#501616;fill-opacity:1;stroke:#000000;stroke-width:0.80000001;stroke-linecap:round;stroke-miterlimit:4;stroke-dasharray:none;stroke-opacity:1"
         d="m 47.393713,218.25336 c -2.555414,-0.79903 -4.436708,-2.5959 -5.857232,-5.59438 -3.557706,-7.50971 -3.142948,-20.6631 1.162204,-36.85712 0.895598,-3.36883 1.089567,-3.81831 2.285611,-5.29648 0.718825,-0.88839 1.227632,-1.69457 1.130681,-1.79153 -0.452948,-0.45294 -4.581277,5.36075 -6.452698,9.08698 -2.479239,4.93646 -3.595301,8.44609 -5.71945,17.98571 -0.752825,3.38096 -1.794754,7.70771 -2.315396,9.615 -1.560509,5.71667 -1.18382,7.09749 2.474066,9.06914 0.843394,0.4546 1.52536,0.94681 1.515478,1.09381 -0.0099,0.147 -0.477666,0.42338 -1.039524,0.61419 -0.853268,0.28976 -1.340784,0.28181 -2.959367,-0.0483 -2.26513,-0.46192 -3.527015,-1.30426 -4.537843,-3.02911 l -0.689668,-1.17682 0.752914,-0.78587 c 1.114052,-1.16282 0.257374,-0.95366 -1.143105,0.27909 -4.380064,3.85548 -8.768271,5.23913 -14.535841,4.58329 -3.8634588,-0.43932 -4.5100238,-0.93229 -2.648598,-2.01943 0.6946027,-0.40566 1.623483,-0.55561 4.261292,-0.68789 3.044142,-0.15265 3.512026,-0.24478 4.797975,-0.94468 1.872358,-1.01907 3.320185,-2.70608 4.578273,-5.33463 1.829266,-3.82192 2.522038,-6.80585 4.406223,-18.97863 1.903611,-12.29829 5.576732,-17.52771 7.654322,-22.34672 7.413582,-11.60543 8.225404,-12.058 25.808625,-11.71576 42.166185,2.80907 51.686905,1.72827 68.902525,-17.30942 2.52147,2.43344 3.97397,3.77005 7.11261,4.27194 -4.55749,4.37812 -8.9844,9.0381 -13.98774,12.90844 -5.79081,4.36215 -12.38777,6.72703 -22.25725,7.97877 -5.653395,0.71701 -17.583847,1.48854 -23.036221,1.48973 -1.498055,2.6e-4 -2.779601,0.091 -2.847882,0.20146 -0.06828,0.11047 -0.319993,2.24529 -0.559367,4.74403 -1.219247,12.72738 -3.143175,23.55551 -4.92311,27.70792 -1.452959,2.0784 -4.44168,5.23041 -0.515456,1.83233 6.286164,-5.57302 9.731042,-7.187 12.061061,-5.65079 2.152483,1.41915 3.98423,5.84251 6.333003,15.29313 l 0.571576,2.29982 2.449156,0.17047 c 7.167821,0.49891 11.79135,3.42917 8.242834,5.22406 -1.599549,0.80907 -3.678565,1.14689 -7.969485,1.29495 -3.642074,0.12566 -4.239609,0.081 -5.976078,-0.44641 -3.436511,-1.0438 -5.118886,-3.36021 -6.755601,-9.30157 -0.980147,-4.48798 -0.475371,-4.36216 -3.587866,-1.44489 -5.768366,5.42459 -10.692445,9.02859 -15.418731,11.28518 -4.203224,2.00684 -7.955396,2.61007 -10.76692,1.73096 z"
         id="path4739" />
      <path
         style="fill:#501616;fill-opacity:1;stroke:#000000;stroke-width:0.80000001;stroke-linecap:round;stroke-miterlimit:4;stroke-dasharray:none;stroke-opacity:1"
         d="m 87.176404,209.74058 c -0.06915,-0.19931 -0.377954,-1.38469 -0.686223,-2.63418 -3.659415,-14.83243 -6.527763,-17.71302 -13.358275,-13.41531 -0.80849,0.5087 -2.06298,1.41933 -2.787756,2.02363 -5.851991,5.85804 -1.685397,2.05239 -0.279376,-2.7736 8.391978,-9.31664 14.397537,-5.84342 19.432034,8.21775 l 1.141251,3.54053 1.069078,0.003 c 2.710699,0.007 7.802338,1.78665 8.421753,2.94404 0.38706,0.72323 0.15627,1.02091 -1.306784,1.68552 -1.084139,0.49248 -1.863363,0.57388 -6.377504,0.66619 -4.159014,0.085 -5.166513,0.0358 -5.268198,-0.25723 z"
         id="path4741" />
    </g>
    <ellipse
       ry="11.339285"
       rx="12.284225"
       cy="152.15915"
       cx="60.693947"
       id="path12"
       style="fill:#e9c6af;stroke:#000000;stroke-width:0.80000001;stroke-miterlimit:4;stroke-dasharray:none;stroke-opacity:1" />
    <ellipse
       ry="1.3951896"
       rx="1.1805451"
       cy="146.84663"
       cx="58.976784"
       id="path14"
       style="fill:#000000;stroke-width:0.15025118" />
    <ellipse
       ry="1.3951896"
       rx="1.1805451"
       cy="146.7393"
       cx="61.874481"
       id="path14-0"
       style="fill:#000000;stroke-width:0.15025118" />
    <path
       id="path39"
       d="m 53.061516,150.96912 c 1.586697,11.16858 13.056655,10.66962 14.741065,0.37799"
       style="fill:none;stroke:#000000;stroke-width:0.80000001;stroke-linecap:round;stroke-linejoin:miter;stroke-miterlimit:4;stroke-dasharray:none;stroke-opacity:1" />
    <ellipse
       ry="7.0826426"
       rx="7.6171813"
       cy="133.29741"
       cx="136.70836"
       id="path4711"
       style="fill:#501616;fill-opacity:1;stroke:#000000;stroke-width:0.80000001;stroke-linecap:round;stroke-miterlimit:4;stroke-dasharray:none;stroke-opacity:1" />
    <g
       transform="matrix(1.117696,-1.2088213,1.2088213,1.117696,-63.875696,178.74976)"
       id="g4764">
      <rect
         style="fill:#c8b7b7;fill-opacity:1;stroke:#000000;stroke-width:0.30000001;stroke-linecap:round;stroke-miterlimit:4;stroke-dasharray:none;stroke-opacity:1"
         id="rect4743"
         width="2.4054255"
         height="20.312483"
         x="101.56242"
         y="59.130119" />
      <path
         style="fill:#000000;fill-opacity:1;stroke:none;stroke-width:0.26458332px;stroke-linecap:butt;stroke-linejoin:miter;stroke-opacity:1"
         d="m 101.41477,79.59025 c 1.14399,3.379037 1.50706,3.413042 2.70073,-0.0089"
         id="path4752" />
    </g>
    <ellipse
       ry="3.5476687"
       rx="3.5476682"
       cy="134.23286"
       cx="137.10927"
       id="path4711-0"
       style="fill:#501616;fill-opacity:1;stroke:#000000;stroke-width:0.386401;stroke-linecap:round;stroke-miterlimit:4;stroke-dasharray:none;stroke-opacity:1" />
  </g>
</svg>
